<svg xmlns="http://www.w3.org/2000/svg" x="0px" y="0px"
viewBox="0 0 172 172"
style=" fill:#000000;"><g fill="none" fill-rule="nonzero" stroke="none" stroke-width="1" stroke-linecap="butt" stroke-linejoin="miter" stroke-miterlimit="10" stroke-dasharray="" stroke-dashoffset="0" font-family="none" font-weight="none" font-size="none" text-anchor="none" style="mix-blend-mode: normal"><path d="M0,172v-172h172v172z" fill="none"></path><g fill="#ffffff"><path d="M43,14.33333c-7.84216,0 -14.33333,6.49117 -14.33333,14.33333v35.83333c-7.91917,0 -14.33333,6.41417 -14.33333,14.33333v35.83333c0,7.91917 6.41417,14.33333 14.33333,14.33333v14.33333c0,7.84216 6.49117,14.33333 14.33333,14.33333h86c7.84216,0 14.33333,-6.49117 14.33333,-14.33333v-93.16667l-35.83333,-35.83333zM43,28.66667h57.33333v28.66667h28.66667v7.16667h-86zM28.66667,78.83333h10.75c5.934,0 10.75,4.816 10.75,10.75c0,5.934 -4.816,10.75 -10.75,10.75h-3.58333v14.33333h-7.16667zM68.01335,78.83333c10.19816,0.29383 10.81999,9.19416 10.81999,10.77799h-6.94271c0,-0.73817 0.12474,-4.99707 -4.00326,-4.99707c-1.25417,0 -4.06428,0.55575 -3.84928,4.01725c0.20783,3.17483 4.38421,4.67423 5.15104,5.01106c1.60533,0.58767 9.55171,4.12789 9.61621,11.35189c0.01433,1.53367 -0.38218,9.5647 -10.65202,9.6722c-11.17283,0.12183 -11.92578,-9.4927 -11.92578,-11.47786h6.9847c0,1.0535 0.08925,6.14709 4.94108,5.75293c2.91683,-0.24367 3.55299,-2.34294 3.65332,-3.90527c0.16483,-2.63017 -2.3454,-4.21131 -4.99707,-5.48698c-3.72667,-1.79167 -9.62069,-3.99362 -9.72819,-10.97396c-0.09317,-6.28517 4.52497,-9.92135 10.93197,-9.74219zM86,79.00131h11.67383c11.33767,0 16.99284,6.81885 16.99284,15.08919v5.52898c0,8.37067 -5.66716,15.0472 -17.09082,15.0472h-11.57584zM35.83333,86v7.16667h3.58333c1.978,0 3.58333,-1.60533 3.58333,-3.58333c0,-1.978 -1.60533,-3.58333 -3.58333,-3.58333zM93.16667,86.16797v21.33203h4.40918c4.52933,0 9.92416,-1.3732 9.92416,-7.88053v-5.52898c0,-6.55033 -5.33984,-7.92252 -9.82617,-7.92252zM43,129h86v14.33333h-86z"></path></g></g></svg>
